<svg width="15" height="15" viewBox="0 0 15 15" fill="none" xmlns="http://www.w3.org/2000/svg">
<path fill-rule="evenodd" clip-rule="evenodd" d="M12.9052 5.50912e-06H1.72481C1.26711 -0.000814003 0.827923 0.180642 0.504283 0.504283C0.180642 0.827923 -0.000814003 1.26711 5.50912e-06 1.72481V12.474C-0.000814003 12.9317 0.180642 13.3709 0.504283 13.6945C0.827923 14.0182 1.26711 14.1996 1.72481 14.1988H12.9052C13.3629 14.1996 13.8021 14.0182 14.1257 13.6945C14.4494 13.3709 14.6308 12.9317 14.63 12.474V1.72481C14.6308 1.26711 14.4494 0.827923 14.1257 0.504283C13.8021 0.180642 13.3629 -0.000814003 12.9052 5.50912e-06ZM1.72481 0.893206H3.31101V1.78641C2.99461 1.94943 2.79776 2.27751 2.80281 2.63341C2.80281 3.16073 3.23028 3.58821 3.75761 3.58821C4.28493 3.58821 4.71241 3.16073 4.71241 2.63341C4.70692 2.28043 4.51307 1.95735 4.20421 1.78641V0.893206H6.86841V1.78641C6.55201 1.94943 6.35516 2.27751 6.36021 2.63341C6.36172 3.10081 6.70137 3.4984 7.1628 3.57291C7.62422 3.64742 8.07176 3.37693 8.2203 2.93376C8.36884 2.49059 8.17472 2.00503 7.76161 1.78641V0.893206H10.4258V1.78641C10.1094 1.94943 9.91256 2.27751 9.91761 2.63341C9.91761 3.16073 10.3451 3.58821 10.8724 3.58821C11.3997 3.58821 11.8272 3.16073 11.8272 2.63341C11.8217 2.28043 11.6279 1.95735 11.319 1.78641V0.893206H12.9052C13.126 0.892383 13.338 0.979734 13.4941 1.13587C13.6503 1.292 13.7376 1.504 13.7368 1.72481V4.26581H0.893206V1.72481C0.892383 1.504 0.979734 1.292 1.13587 1.13587C1.292 0.979734 1.504 0.892383 1.72481 0.893206ZM1.72481 13.3056H12.9052C13.126 13.3064 13.338 13.2191 13.4941 13.0629C13.6503 12.9068 13.7376 12.6948 13.7368 12.474V5.15901H0.893206V12.474C0.892383 12.6948 0.979734 12.9068 1.13587 13.0629C1.292 13.2191 1.504 13.3064 1.72481 13.3056Z" fill="black"/>
<path d="M4.60463 6.77601H2.92603C2.82367 6.77518 2.72526 6.81548 2.65288 6.88786C2.5805 6.96024 2.5402 7.05865 2.54103 7.16101V8.14661C2.5402 8.24897 2.5805 8.34738 2.65288 8.41976C2.72526 8.49215 2.82367 8.53244 2.92603 8.53161H4.60463C4.70699 8.53244 4.8054 8.49215 4.87778 8.41976C4.95016 8.34738 4.99046 8.24897 4.98963 8.14661V7.16101C4.99046 7.05865 4.95016 6.96024 4.87778 6.88786C4.8054 6.81548 4.70699 6.77518 4.60463 6.77601Z" fill="black"/>
<path d="M8.1466 6.77599H6.4834C6.38104 6.77516 6.28263 6.81546 6.21025 6.88784C6.13787 6.96022 6.09757 7.05863 6.0984 7.16099V8.14659C6.09757 8.24895 6.13787 8.34736 6.21025 8.41974C6.28263 8.49212 6.38104 8.53242 6.4834 8.53159H8.162C8.26436 8.53242 8.36277 8.49212 8.43515 8.41974C8.50753 8.34736 8.54783 8.24895 8.547 8.14659V7.16099C8.54195 6.94446 8.36317 6.77255 8.1466 6.77599Z" fill="black"/>
<path d="M11.704 6.77601H10.0254C9.92303 6.77518 9.82462 6.81548 9.75224 6.88786C9.67986 6.96024 9.63956 7.05865 9.64039 7.16101V8.14661C9.63956 8.24897 9.67986 8.34738 9.75224 8.41976C9.82462 8.49215 9.92303 8.53244 10.0254 8.53161H11.704C11.8064 8.53244 11.9048 8.49215 11.9771 8.41976C12.0495 8.34738 12.0898 8.24897 12.089 8.14661V7.16101C12.0898 7.05865 12.0495 6.96024 11.9771 6.88786C11.9048 6.81548 11.8064 6.77518 11.704 6.77601Z" fill="black"/>
<path d="M4.60463 9.9022H2.92603C2.82367 9.90137 2.72526 9.94167 2.65288 10.0141C2.5805 10.0864 2.5402 10.1848 2.54103 10.2872V11.2728C2.5402 11.3752 2.5805 11.4736 2.65288 11.546C2.72526 11.6183 2.82367 11.6586 2.92603 11.6578H4.60463C4.70699 11.6586 4.8054 11.6183 4.87778 11.546C4.95016 11.4736 4.99046 11.3752 4.98963 11.2728V10.2872C4.98633 10.076 4.81588 9.90551 4.60463 9.9022V9.9022Z" fill="black"/>
<path d="M8.1466 9.9022H6.4834C6.38104 9.90137 6.28263 9.94167 6.21025 10.0141C6.13787 10.0864 6.09757 10.1848 6.0984 10.2872V11.2728C6.09757 11.3752 6.13787 11.4736 6.21025 11.546C6.28263 11.6183 6.38104 11.6586 6.4834 11.6578H8.162C8.26436 11.6586 8.36277 11.6183 8.43515 11.546C8.50753 11.4736 8.54783 11.3752 8.547 11.2728V10.2872C8.53642 10.0731 8.36091 9.90439 8.1466 9.9022V9.9022Z" fill="black"/>
<path d="M11.704 9.9022H10.0254C9.92303 9.90137 9.82462 9.94167 9.75224 10.0141C9.67986 10.0864 9.63956 10.1848 9.64039 10.2872V11.2728C9.63956 11.3752 9.67986 11.4736 9.75224 11.546C9.82462 11.6183 9.92303 11.6586 10.0254 11.6578H11.704C11.8064 11.6586 11.9048 11.6183 11.9771 11.546C12.0495 11.4736 12.0898 11.3752 12.089 11.2728V10.2872C12.0857 10.076 11.9152 9.90551 11.704 9.9022V9.9022Z" fill="black"/>
</svg>
