<svg width="464" height="65" viewBox="0 0 464 65" fill="none" xmlns="http://www.w3.org/2000/svg">
<rect x="0.5" y="0.5" width="463" height="64" rx="7.5" fill="#6AAA4F" stroke="#375929"/>
<path d="M416 0H456C460.418 0 464 3.58172 464 8V57C464 61.4183 460.418 65 456 65H416V0Z" fill="#375929"/>
<path d="M47.7783 40.126C46.5903 40.126 45.4983 39.85 44.5023 39.298C43.5183 38.746 42.7323 37.978 42.1443 36.994C41.5683 35.998 41.2803 34.882 41.2803 33.646C41.2803 32.41 41.5683 31.3 42.1443 30.316C42.7323 29.332 43.5183 28.564 44.5023 28.012C45.4983 27.46 46.5903 27.184 47.7783 27.184C48.9663 27.184 50.0523 27.46 51.0363 28.012C52.0323 28.564 52.8123 29.332 53.3763 30.316C53.9523 31.3 54.2403 32.41 54.2403 33.646C54.2403 34.882 53.9523 35.998 53.3763 36.994C52.8003 37.978 52.0203 38.746 51.0363 39.298C50.0523 39.85 48.9663 40.126 47.7783 40.126ZM47.7783 37.318C48.7863 37.318 49.5903 36.982 50.1903 36.31C50.8023 35.638 51.1083 34.75 51.1083 33.646C51.1083 32.53 50.8023 31.642 50.1903 30.982C49.5903 30.31 48.7863 29.974 47.7783 29.974C46.7583 29.974 45.9423 30.304 45.3303 30.964C44.7303 31.624 44.4303 32.518 44.4303 33.646C44.4303 34.762 44.7303 35.656 45.3303 36.328C45.9423 36.988 46.7583 37.318 47.7783 37.318ZM62.5967 40L59.9687 35.23H59.2307V40H56.1527V27.364H61.3187C62.3147 27.364 63.1607 27.538 63.8567 27.886C64.5647 28.234 65.0927 28.714 65.4407 29.326C65.7887 29.926 65.9627 30.598 65.9627 31.342C65.9627 32.182 65.7227 32.932 65.2427 33.592C64.7747 34.252 64.0787 34.72 63.1547 34.996L66.0707 40H62.5967ZM59.2307 33.052H61.1387C61.7027 33.052 62.1227 32.914 62.3987 32.638C62.6867 32.362 62.8307 31.972 62.8307 31.468C62.8307 30.988 62.6867 30.61 62.3987 30.334C62.1227 30.058 61.7027 29.92 61.1387 29.92H59.2307V33.052ZM72.8289 27.364C74.1609 27.364 75.3249 27.628 76.3209 28.156C77.3169 28.684 78.0849 29.428 78.6249 30.388C79.1769 31.336 79.4529 32.434 79.4529 33.682C79.4529 34.918 79.1769 36.016 78.6249 36.976C78.0849 37.936 77.3109 38.68 76.3029 39.208C75.3069 39.736 74.1489 40 72.8289 40H68.0949V27.364H72.8289ZM72.6309 37.336C73.7949 37.336 74.7009 37.018 75.3489 36.382C75.9969 35.746 76.3209 34.846 76.3209 33.682C76.3209 32.518 75.9969 31.612 75.3489 30.964C74.7009 30.316 73.7949 29.992 72.6309 29.992H71.1729V37.336H72.6309ZM84.451 29.83V32.386H88.573V34.762H84.451V37.534H89.113V40H81.373V27.364H89.113V29.83H84.451ZM97.7553 40L95.1273 35.23H94.3893V40H91.3113V27.364H96.4773C97.4733 27.364 98.3193 27.538 99.0153 27.886C99.7233 28.234 100.251 28.714 100.599 29.326C100.947 29.926 101.121 30.598 101.121 31.342C101.121 32.182 100.881 32.932 100.401 33.592C99.9333 34.252 99.2373 34.72 98.3133 34.996L101.229 40H97.7553ZM94.3893 33.052H96.2973C96.8613 33.052 97.2813 32.914 97.5573 32.638C97.8453 32.362 97.9893 31.972 97.9893 31.468C97.9893 30.988 97.8453 30.61 97.5573 30.334C97.2813 30.058 96.8613 29.92 96.2973 29.92H94.3893V33.052ZM114.918 33.52C115.65 33.676 116.238 34.042 116.682 34.618C117.126 35.182 117.348 35.83 117.348 36.562C117.348 37.618 116.976 38.458 116.232 39.082C115.5 39.694 114.474 40 113.154 40H107.268V27.364H112.956C114.24 27.364 115.242 27.658 115.962 28.246C116.694 28.834 117.06 29.632 117.06 30.64C117.06 31.384 116.862 32.002 116.466 32.494C116.082 32.986 115.566 33.328 114.918 33.52ZM110.346 32.476H112.362C112.866 32.476 113.25 32.368 113.514 32.152C113.79 31.924 113.928 31.594 113.928 31.162C113.928 30.73 113.79 30.4 113.514 30.172C113.25 29.944 112.866 29.83 112.362 29.83H110.346V32.476ZM112.614 37.516C113.13 37.516 113.526 37.402 113.802 37.174C114.09 36.934 114.234 36.592 114.234 36.148C114.234 35.704 114.084 35.356 113.784 35.104C113.496 34.852 113.094 34.726 112.578 34.726H110.346V37.516H112.614ZM127.199 37.768H122.483L121.727 40H118.505L123.077 27.364H126.641L131.213 40H127.955L127.199 37.768ZM126.407 35.392L124.841 30.766L123.293 35.392H126.407ZM139.249 40L136.621 35.23H135.883V40H132.805V27.364H137.971C138.967 27.364 139.813 27.538 140.509 27.886C141.217 28.234 141.745 28.714 142.093 29.326C142.441 29.926 142.615 30.598 142.615 31.342C142.615 32.182 142.375 32.932 141.895 33.592C141.427 34.252 140.731 34.72 139.807 34.996L142.723 40H139.249ZM135.883 33.052H137.791C138.355 33.052 138.775 32.914 139.051 32.638C139.339 32.362 139.483 31.972 139.483 31.468C139.483 30.988 139.339 30.61 139.051 30.334C138.775 30.058 138.355 29.92 137.791 29.92H135.883V33.052ZM152.487 40L149.913 36.13L147.645 40H144.153L148.203 33.574L144.063 27.364H147.645L150.183 31.18L152.415 27.364H155.907L151.893 33.736L156.069 40H152.487ZM165.464 33.52C166.196 33.676 166.784 34.042 167.228 34.618C167.672 35.182 167.894 35.83 167.894 36.562C167.894 37.618 167.522 38.458 166.778 39.082C166.046 39.694 165.02 40 163.7 40H157.814V27.364H163.502C164.786 27.364 165.788 27.658 166.508 28.246C167.24 28.834 167.606 29.632 167.606 30.64C167.606 31.384 167.408 32.002 167.012 32.494C166.628 32.986 166.112 33.328 165.464 33.52ZM160.892 32.476H162.908C163.412 32.476 163.796 32.368 164.06 32.152C164.336 31.924 164.474 31.594 164.474 31.162C164.474 30.73 164.336 30.4 164.06 30.172C163.796 29.944 163.412 29.83 162.908 29.83H160.892V32.476ZM163.16 37.516C163.676 37.516 164.072 37.402 164.348 37.174C164.636 36.934 164.78 36.592 164.78 36.148C164.78 35.704 164.63 35.356 164.33 35.104C164.042 34.852 163.64 34.726 163.124 34.726H160.892V37.516H163.16ZM172.903 27.364V34.924C172.903 35.68 173.089 36.262 173.461 36.67C173.833 37.078 174.379 37.282 175.099 37.282C175.819 37.282 176.371 37.078 176.755 36.67C177.139 36.262 177.331 35.68 177.331 34.924V27.364H180.409V34.906C180.409 36.034 180.169 36.988 179.689 37.768C179.209 38.548 178.561 39.136 177.745 39.532C176.941 39.928 176.041 40.126 175.045 40.126C174.049 40.126 173.155 39.934 172.363 39.55C171.583 39.154 170.965 38.566 170.509 37.786C170.053 36.994 169.825 36.034 169.825 34.906V27.364H172.903ZM187.505 27.364C188.837 27.364 190.001 27.628 190.997 28.156C191.993 28.684 192.761 29.428 193.301 30.388C193.853 31.336 194.129 32.434 194.129 33.682C194.129 34.918 193.853 36.016 193.301 36.976C192.761 37.936 191.987 38.68 190.979 39.208C189.983 39.736 188.825 40 187.505 40H182.771V27.364H187.505ZM187.307 37.336C188.471 37.336 189.377 37.018 190.025 36.382C190.673 35.746 190.997 34.846 190.997 33.682C190.997 32.518 190.673 31.612 190.025 30.964C189.377 30.316 188.471 29.992 187.307 29.992H185.849V37.336H187.307ZM200.783 27.364C202.115 27.364 203.279 27.628 204.275 28.156C205.271 28.684 206.039 29.428 206.579 30.388C207.131 31.336 207.407 32.434 207.407 33.682C207.407 34.918 207.131 36.016 206.579 36.976C206.039 37.936 205.265 38.68 204.257 39.208C203.261 39.736 202.103 40 200.783 40H196.049V27.364H200.783ZM200.585 37.336C201.749 37.336 202.655 37.018 203.303 36.382C203.951 35.746 204.275 34.846 204.275 33.682C204.275 32.518 203.951 31.612 203.303 30.964C202.655 30.316 201.749 29.992 200.585 29.992H199.127V37.336H200.585ZM220.163 27.364L215.789 35.824V40H212.711V35.824L208.337 27.364H211.829L214.277 32.656L216.707 27.364H220.163ZM236.922 40H233.844L228.696 32.206V40H225.618V27.364H228.696L233.844 35.194V27.364H236.922V40ZM245.329 40.126C244.141 40.126 243.049 39.85 242.053 39.298C241.069 38.746 240.283 37.978 239.695 36.994C239.119 35.998 238.831 34.882 238.831 33.646C238.831 32.41 239.119 31.3 239.695 30.316C240.283 29.332 241.069 28.564 242.053 28.012C243.049 27.46 244.141 27.184 245.329 27.184C246.517 27.184 247.603 27.46 248.587 28.012C249.583 28.564 250.363 29.332 250.927 30.316C251.503 31.3 251.791 32.41 251.791 33.646C251.791 34.882 251.503 35.998 250.927 36.994C250.351 37.978 249.571 38.746 248.587 39.298C247.603 39.85 246.517 40.126 245.329 40.126ZM245.329 37.318C246.337 37.318 247.141 36.982 247.741 36.31C248.353 35.638 248.659 34.75 248.659 33.646C248.659 32.53 248.353 31.642 247.741 30.982C247.141 30.31 246.337 29.974 245.329 29.974C244.309 29.974 243.493 30.304 242.881 30.964C242.281 31.624 241.981 32.518 241.981 33.646C241.981 34.762 242.281 35.656 242.881 36.328C243.493 36.988 244.309 37.318 245.329 37.318ZM271.091 27.364L267.797 40H264.071L262.055 31.684L259.967 40H256.241L253.037 27.364H256.331L258.149 36.562L260.399 27.364H263.783L265.943 36.562L267.779 27.364H271.091ZM284.715 37.768H279.999L279.243 40H276.021L280.593 27.364H284.157L288.729 40H285.471L284.715 37.768ZM283.923 35.392L282.357 30.766L280.809 35.392H283.923ZM301.625 40H298.547L293.399 32.206V40H290.321V27.364H293.399L298.547 35.194V27.364H301.625V40ZM308.79 27.364C310.122 27.364 311.286 27.628 312.282 28.156C313.278 28.684 314.046 29.428 314.586 30.388C315.138 31.336 315.414 32.434 315.414 33.682C315.414 34.918 315.138 36.016 314.586 36.976C314.046 37.936 313.272 38.68 312.264 39.208C311.268 39.736 310.11 40 308.79 40H304.056V27.364H308.79ZM308.592 37.336C309.756 37.336 310.662 37.018 311.31 36.382C311.958 35.746 312.282 34.846 312.282 33.682C312.282 32.518 311.958 31.612 311.31 30.964C310.662 30.316 309.756 29.992 308.592 29.992H307.134V37.336H308.592ZM325.92 40.126C324.996 40.126 324.168 39.976 323.436 39.676C322.704 39.376 322.116 38.932 321.672 38.344C321.24 37.756 321.012 37.048 320.988 36.22H324.264C324.312 36.688 324.474 37.048 324.75 37.3C325.026 37.54 325.386 37.66 325.83 37.66C326.286 37.66 326.646 37.558 326.91 37.354C327.174 37.138 327.306 36.844 327.306 36.472C327.306 36.16 327.198 35.902 326.982 35.698C326.778 35.494 326.52 35.326 326.208 35.194C325.908 35.062 325.476 34.912 324.912 34.744C324.096 34.492 323.43 34.24 322.914 33.988C322.398 33.736 321.954 33.364 321.582 32.872C321.21 32.38 321.024 31.738 321.024 30.946C321.024 29.77 321.45 28.852 322.302 28.192C323.154 27.52 324.264 27.184 325.632 27.184C327.024 27.184 328.146 27.52 328.998 28.192C329.85 28.852 330.306 29.776 330.366 30.964H327.036C327.012 30.556 326.862 30.238 326.586 30.01C326.31 29.77 325.956 29.65 325.524 29.65C325.152 29.65 324.852 29.752 324.624 29.956C324.396 30.148 324.282 30.43 324.282 30.802C324.282 31.21 324.474 31.528 324.858 31.756C325.242 31.984 325.842 32.23 326.658 32.494C327.474 32.77 328.134 33.034 328.638 33.286C329.154 33.538 329.598 33.904 329.97 34.384C330.342 34.864 330.528 35.482 330.528 36.238C330.528 36.958 330.342 37.612 329.97 38.2C329.61 38.788 329.082 39.256 328.386 39.604C327.69 39.952 326.868 40.126 325.92 40.126ZM340.489 37.768H335.773L335.017 40H331.795L336.367 27.364H339.931L344.503 40H341.245L340.489 37.768ZM339.697 35.392L338.131 30.766L336.583 35.392H339.697ZM357.956 27.364L353.474 40H349.622L345.14 27.364H348.416L351.548 36.904L354.698 27.364H357.956ZM362.521 29.83V32.386H366.643V34.762H362.521V37.534H367.183V40H359.443V27.364H367.183V29.83H362.521ZM373.431 26.914L373.071 35.536H370.461L370.101 26.914H373.431ZM371.811 40.144C371.271 40.144 370.827 39.988 370.479 39.676C370.143 39.352 369.975 38.956 369.975 38.488C369.975 38.008 370.143 37.606 370.479 37.282C370.827 36.958 371.271 36.796 371.811 36.796C372.339 36.796 372.771 36.958 373.107 37.282C373.455 37.606 373.629 38.008 373.629 38.488C373.629 38.956 373.455 39.352 373.107 39.676C372.771 39.988 372.339 40.144 371.811 40.144Z" fill="white"/>
<path fill-rule="evenodd" clip-rule="evenodd" d="M430 22.4004L449 33.0568L430 43.4004L433.8 32.846L430 22.4004Z" fill="white"/>
</svg>
