<svg width="598" height="190" viewBox="0 0 598 190" fill="none" xmlns="http://www.w3.org/2000/svg">
<path fill-rule="evenodd" clip-rule="evenodd" d="M0 55H170L200 122.261L170 190H0L30 122.443L0 55Z" fill="#FFE7E1"/>
<path fill-rule="evenodd" clip-rule="evenodd" d="M198 55H368L398 122.261L368 190H198L228 122.443L198 55Z" fill="#FFE7E1"/>
<path fill-rule="evenodd" clip-rule="evenodd" d="M398 55H568L598 122.261L568 190H398L428 122.443L398 55Z" fill="#FFE7E1"/>
<circle cx="100" cy="55" r="54" fill="white" stroke="#F34E27" stroke-width="2"/>
<path fill-rule="evenodd" clip-rule="evenodd" d="M114.181 25.42C113.589 27.8196 112.69 31.4302 111.996 36.0417L111.968 36.2182L111.857 36.3582C111.616 36.655 111.376 36.9322 111.135 37.1828C110.45 37.8954 109.746 38.3952 108.847 38.3952C108.577 38.3957 108.308 38.3551 108.051 38.2747C106.782 37.8673 105.893 36.1832 104.856 34.2288C103.477 31.6444 102.606 28.2004 99.5134 28.2004C96.4208 28.2004 95.5402 31.6444 94.1696 34.2288C93.1322 36.1888 92.2348 37.8687 90.965 38.2747C90.7076 38.3551 90.4395 38.3957 90.1698 38.3952C89.271 38.3952 88.5766 37.8954 87.8906 37.1828C87.6498 36.9322 87.409 36.655 87.1682 36.3582L87.0478 36.2182L87.0212 36.0417C86.3212 31.4302 85.4364 27.8196 84.8442 25.42C84.2058 22.865 83.993 21.948 84.196 21.374C84.854 19.4294 92.1228 18.105 98.791 18.014C99.0122 18.0042 99.2348 18.0042 99.4476 18.0042H99.568C99.7822 18.0042 100.003 18.0042 100.226 18.014C106.894 18.1064 114.163 19.4308 114.821 21.374C115.024 21.9452 114.811 22.8622 114.181 25.42Z" stroke="#F34E27" stroke-width="0.84"/>
<path fill-rule="evenodd" clip-rule="evenodd" d="M110.44 73.6555C110.551 81.3135 110.653 86.9807 110.607 87.9439C110.515 89.7639 110.755 90.3799 99.5134 90.3799C88.2714 90.3799 88.5108 89.7681 88.4184 87.9439C88.3722 86.9807 88.4744 81.3135 88.585 73.6555C88.6046 71.6731 88.6312 69.5619 88.6592 67.3681C88.7054 63.4971 88.7432 59.3573 88.7516 55.1993C88.7712 53.5599 88.7712 51.9121 88.7712 50.2825C88.7712 49.9115 88.7712 49.5405 88.7614 49.1807C88.7432 47.0317 88.6508 44.9807 88.5024 43.0683C88.354 40.9599 88.1412 38.9999 87.8906 37.1799C88.5766 37.8925 89.271 38.3923 90.1698 38.3923C90.4395 38.3929 90.7076 38.3523 90.965 38.2719C92.2348 37.8645 93.1322 36.1803 94.1696 34.2259C95.5402 31.6415 96.0274 28.1975 99.5134 28.1975C102.999 28.1975 103.477 31.6415 104.856 34.2259C105.893 36.1859 106.782 37.8659 108.051 38.2719C108.309 38.3523 108.577 38.3929 108.847 38.3923C109.746 38.3923 110.45 37.8925 111.135 37.1799C110.547 41.5231 110.253 45.9011 110.256 50.2839C110.256 58.3759 110.348 66.8123 110.44 73.6555Z" stroke="#F34E27" stroke-width="0.84"/>
<path d="M99.5597 31.6779H99.5037" stroke="#F34E27" stroke-width="0.84"/>
<ellipse cx="99.54" cy="38.3951" rx="2.331" ry="3.0814" stroke="#F34E27" stroke-width="0.84"/>
<rect x="97.5127" y="46.9548" width="4.1034" height="8.2474" rx="0.2464" stroke="#F34E27" stroke-width="0.84"/>
<path d="M88.501 43.0641H92.6366" stroke="#F34E27" stroke-width="0.84" stroke-linecap="round"/>
<path d="M88.7571 49.1767H92.6365" stroke="#F34E27" stroke-width="0.84" stroke-linecap="round"/>
<path d="M88.7529 55.2021H92.6365" stroke="#F34E27" stroke-width="0.84" stroke-linecap="round"/>
<path d="M88.6521 67.3669H99.5399" stroke="#F34E27" stroke-width="0.84"/>
<path d="M88.5725 73.6569H99.5401" stroke="#F34E27" stroke-width="0.84"/>
<path d="M88.501 79.7553H99.5988" stroke="#F34E27" stroke-width="0.84"/>
<path fill-rule="evenodd" clip-rule="evenodd" d="M104.245 46.9576C104.245 58.3298 101.025 60.2002 99.5035 60.2002C97.9817 60.2002 94.7715 58.3298 94.7715 46.9576C94.7715 35.6876 97.6611 31.7522 99.5035 31.678C101.346 31.7522 104.245 35.6876 104.245 46.9576Z" stroke="#F34E27" stroke-width="0.84"/>
<path d="M99.5035 31.6779H99.4475" stroke="#F34E27" stroke-width="0.84"/>
<path d="M110.51 43.0641H106.375" stroke="#F34E27" stroke-width="0.84" stroke-linecap="round"/>
<path d="M110.254 49.1767H106.375" stroke="#F34E27" stroke-width="0.84" stroke-linecap="round"/>
<path d="M110.258 55.2021H106.375" stroke="#F34E27" stroke-width="0.84" stroke-linecap="round"/>
<path d="M110.359 67.3669H99.4714" stroke="#F34E27" stroke-width="0.84"/>
<path d="M110.439 73.6569H99.4714" stroke="#F34E27" stroke-width="0.84"/>
<path d="M110.51 79.7553H99.4126" stroke="#F34E27" stroke-width="0.84"/>
<path d="M57.2811 144.296V140.48H63.9291V158H59.6571V144.296H57.2811ZM69.3312 158.192C68.6112 158.192 68.0192 157.984 67.5552 157.568C67.1072 157.136 66.8832 156.608 66.8832 155.984C66.8832 155.344 67.1072 154.808 67.5552 154.376C68.0192 153.944 68.6112 153.728 69.3312 153.728C70.0352 153.728 70.6112 153.944 71.0592 154.376C71.5232 154.808 71.7552 155.344 71.7552 155.984C71.7552 156.608 71.5232 157.136 71.0592 157.568C70.6112 157.984 70.0352 158.192 69.3312 158.192ZM91.9239 141.152V144.44H87.4599V158H83.3559V144.44H78.8919V141.152H91.9239ZM98.3542 146.84C98.8342 146.104 99.4342 145.528 100.154 145.112C100.874 144.68 101.674 144.464 102.554 144.464V148.808H101.426C100.402 148.808 99.6342 149.032 99.1222 149.48C98.6102 149.912 98.3542 150.68 98.3542 151.784V158H94.2502V144.608H98.3542V146.84ZM103.967 151.28C103.967 149.904 104.223 148.696 104.735 147.656C105.263 146.616 105.975 145.816 106.871 145.256C107.767 144.696 108.767 144.416 109.871 144.416C110.815 144.416 111.639 144.608 112.343 144.992C113.063 145.376 113.615 145.88 113.999 146.504V144.608H118.103V158H113.999V156.104C113.599 156.728 113.039 157.232 112.319 157.616C111.615 158 110.791 158.192 109.847 158.192C108.759 158.192 107.767 157.912 106.871 157.352C105.975 156.776 105.263 155.968 104.735 154.928C104.223 153.872 103.967 152.656 103.967 151.28ZM113.999 151.304C113.999 150.28 113.711 149.472 113.135 148.88C112.575 148.288 111.887 147.992 111.071 147.992C110.255 147.992 109.559 148.288 108.983 148.88C108.423 149.456 108.143 150.256 108.143 151.28C108.143 152.304 108.423 153.12 108.983 153.728C109.559 154.32 110.255 154.616 111.071 154.616C111.887 154.616 112.575 154.32 113.135 153.728C113.711 153.136 113.999 152.328 113.999 151.304ZM123.402 143.216C122.682 143.216 122.09 143.008 121.626 142.592C121.178 142.16 120.954 141.632 120.954 141.008C120.954 140.368 121.178 139.84 121.626 139.424C122.09 138.992 122.682 138.776 123.402 138.776C124.106 138.776 124.682 138.992 125.13 139.424C125.594 139.84 125.826 140.368 125.826 141.008C125.826 141.632 125.594 142.16 125.13 142.592C124.682 143.008 124.106 143.216 123.402 143.216ZM125.442 144.608V158H121.338V144.608H125.442ZM136.843 144.464C138.411 144.464 139.659 144.976 140.587 146C141.531 147.008 142.003 148.4 142.003 150.176V158H137.923V150.728C137.923 149.832 137.691 149.136 137.227 148.64C136.763 148.144 136.139 147.896 135.355 147.896C134.571 147.896 133.947 148.144 133.483 148.64C133.019 149.136 132.787 149.832 132.787 150.728V158H128.683V144.608H132.787V146.384C133.203 145.792 133.763 145.328 134.467 144.992C135.171 144.64 135.963 144.464 136.843 144.464Z" fill="#F34E27"/>
<path d="M253.581 154.712C254.125 154.28 254.373 154.08 254.325 154.112C255.893 152.816 257.125 151.752 258.021 150.92C258.933 150.088 259.701 149.216 260.325 148.304C260.949 147.392 261.261 146.504 261.261 145.64C261.261 144.984 261.109 144.472 260.805 144.104C260.501 143.736 260.045 143.552 259.437 143.552C258.829 143.552 258.349 143.784 257.997 144.248C257.661 144.696 257.493 145.336 257.493 146.168H253.533C253.565 144.808 253.853 143.672 254.397 142.76C254.957 141.848 255.685 141.176 256.581 140.744C257.493 140.312 258.501 140.096 259.605 140.096C261.509 140.096 262.941 140.584 263.901 141.56C264.877 142.536 265.365 143.808 265.365 145.376C265.365 147.088 264.781 148.68 263.613 150.152C262.445 151.608 260.957 153.032 259.149 154.424H265.629V157.76H253.581V154.712ZM270.03 158.192C269.31 158.192 268.718 157.984 268.254 157.568C267.806 157.136 267.582 156.608 267.582 155.984C267.582 155.344 267.806 154.808 268.254 154.376C268.718 153.944 269.31 153.728 270.03 153.728C270.734 153.728 271.31 153.944 271.758 154.376C272.222 154.808 272.454 155.344 272.454 155.984C272.454 156.608 272.222 157.136 271.758 157.568C271.31 157.984 270.734 158.192 270.03 158.192ZM292.623 141.152V144.44H288.159V158H284.055V144.44H279.591V141.152H292.623ZM299.053 146.84C299.533 146.104 300.133 145.528 300.853 145.112C301.573 144.68 302.373 144.464 303.253 144.464V148.808H302.125C301.101 148.808 300.333 149.032 299.821 149.48C299.309 149.912 299.053 150.68 299.053 151.784V158H294.949V144.608H299.053V146.84ZM318.106 151.088C318.106 151.472 318.082 151.872 318.034 152.288H308.746C308.81 153.12 309.074 153.76 309.538 154.208C310.018 154.64 310.602 154.856 311.29 154.856C312.314 154.856 313.026 154.424 313.426 153.56H317.794C317.57 154.44 317.162 155.232 316.57 155.936C315.994 156.64 315.266 157.192 314.386 157.592C313.506 157.992 312.522 158.192 311.434 158.192C310.122 158.192 308.954 157.912 307.93 157.352C306.906 156.792 306.106 155.992 305.53 154.952C304.954 153.912 304.666 152.696 304.666 151.304C304.666 149.912 304.946 148.696 305.506 147.656C306.082 146.616 306.882 145.816 307.906 145.256C308.93 144.696 310.106 144.416 311.434 144.416C312.73 144.416 313.882 144.688 314.89 145.232C315.898 145.776 316.682 146.552 317.242 147.56C317.818 148.568 318.106 149.744 318.106 151.088ZM313.906 150.008C313.906 149.304 313.666 148.744 313.186 148.328C312.706 147.912 312.106 147.704 311.386 147.704C310.698 147.704 310.114 147.904 309.634 148.304C309.17 148.704 308.882 149.272 308.77 150.008H313.906ZM319.721 151.28C319.721 149.904 319.977 148.696 320.489 147.656C321.017 146.616 321.729 145.816 322.625 145.256C323.521 144.696 324.521 144.416 325.625 144.416C326.569 144.416 327.393 144.608 328.097 144.992C328.817 145.376 329.369 145.88 329.753 146.504V144.608H333.857V158H329.753V156.104C329.353 156.728 328.793 157.232 328.073 157.616C327.369 158 326.545 158.192 325.601 158.192C324.513 158.192 323.521 157.912 322.625 157.352C321.729 156.776 321.017 155.968 320.489 154.928C319.977 153.872 319.721 152.656 319.721 151.28ZM329.753 151.304C329.753 150.28 329.465 149.472 328.889 148.88C328.329 148.288 327.641 147.992 326.825 147.992C326.009 147.992 325.313 148.288 324.737 148.88C324.177 149.456 323.897 150.256 323.897 151.28C323.897 152.304 324.177 153.12 324.737 153.728C325.313 154.32 326.009 154.616 326.825 154.616C327.641 154.616 328.329 154.32 328.889 153.728C329.465 153.136 329.753 152.328 329.753 151.304ZM344.557 154.52V158H342.469C340.981 158 339.821 157.64 338.989 156.92C338.157 156.184 337.741 154.992 337.741 153.344V148.016H336.109V144.608H337.741V141.344H341.845V144.608H344.533V148.016H341.845V153.392C341.845 153.792 341.941 154.08 342.133 154.256C342.325 154.432 342.645 154.52 343.093 154.52H344.557Z" fill="#F34E27"/>
<path d="M440.681 145.424C440.745 143.712 441.305 142.392 442.361 141.464C443.417 140.536 444.849 140.072 446.657 140.072C447.857 140.072 448.881 140.28 449.729 140.696C450.593 141.112 451.241 141.68 451.673 142.4C452.121 143.12 452.345 143.928 452.345 144.824C452.345 145.88 452.081 146.744 451.553 147.416C451.025 148.072 450.409 148.52 449.705 148.76V148.856C450.617 149.16 451.337 149.664 451.865 150.368C452.393 151.072 452.657 151.976 452.657 153.08C452.657 154.072 452.425 154.952 451.961 155.72C451.513 156.472 450.849 157.064 449.969 157.496C449.105 157.928 448.073 158.144 446.873 158.144C444.953 158.144 443.417 157.672 442.265 156.728C441.129 155.784 440.529 154.36 440.465 152.456H444.449C444.465 153.16 444.665 153.72 445.049 154.136C445.433 154.536 445.993 154.736 446.729 154.736C447.353 154.736 447.833 154.56 448.169 154.208C448.521 153.84 448.697 153.36 448.697 152.768C448.697 152 448.449 151.448 447.953 151.112C447.473 150.76 446.697 150.584 445.625 150.584H444.857V147.248H445.625C446.441 147.248 447.097 147.112 447.593 146.84C448.105 146.552 448.361 146.048 448.361 145.328C448.361 144.752 448.201 144.304 447.881 143.984C447.561 143.664 447.121 143.504 446.561 143.504C445.953 143.504 445.497 143.688 445.193 144.056C444.905 144.424 444.737 144.88 444.689 145.424H440.681ZM457.663 158.192C456.943 158.192 456.351 157.984 455.887 157.568C455.439 157.136 455.215 156.608 455.215 155.984C455.215 155.344 455.439 154.808 455.887 154.376C456.351 153.944 456.943 153.728 457.663 153.728C458.367 153.728 458.943 153.944 459.391 154.376C459.855 154.808 460.087 155.344 460.087 155.984C460.087 156.608 459.855 157.136 459.391 157.568C458.943 157.984 458.367 158.192 457.663 158.192ZM476.727 158L473.223 151.64H472.239V158H468.135V141.152H475.023C476.351 141.152 477.479 141.384 478.407 141.848C479.351 142.312 480.055 142.952 480.519 143.768C480.983 144.568 481.215 145.464 481.215 146.456C481.215 147.576 480.895 148.576 480.255 149.456C479.631 150.336 478.703 150.96 477.471 151.328L481.359 158H476.727ZM472.239 148.736H474.783C475.535 148.736 476.095 148.552 476.463 148.184C476.847 147.816 477.039 147.296 477.039 146.624C477.039 145.984 476.847 145.48 476.463 145.112C476.095 144.744 475.535 144.56 474.783 144.56H472.239V148.736ZM496.682 151.088C496.682 151.472 496.658 151.872 496.61 152.288H487.322C487.386 153.12 487.65 153.76 488.114 154.208C488.594 154.64 489.178 154.856 489.866 154.856C490.89 154.856 491.602 154.424 492.002 153.56H496.37C496.146 154.44 495.738 155.232 495.146 155.936C494.57 156.64 493.842 157.192 492.962 157.592C492.082 157.992 491.098 158.192 490.01 158.192C488.698 158.192 487.53 157.912 486.506 157.352C485.482 156.792 484.682 155.992 484.106 154.952C483.53 153.912 483.242 152.696 483.242 151.304C483.242 149.912 483.522 148.696 484.082 147.656C484.658 146.616 485.458 145.816 486.482 145.256C487.506 144.696 488.682 144.416 490.01 144.416C491.306 144.416 492.458 144.688 493.466 145.232C494.474 145.776 495.258 146.552 495.818 147.56C496.394 148.568 496.682 149.744 496.682 151.088ZM492.482 150.008C492.482 149.304 492.242 148.744 491.762 148.328C491.282 147.912 490.682 147.704 489.962 147.704C489.274 147.704 488.69 147.904 488.21 148.304C487.746 148.704 487.458 149.272 487.346 150.008H492.482ZM503.218 146.504C503.618 145.88 504.17 145.376 504.874 144.992C505.578 144.608 506.402 144.416 507.346 144.416C508.45 144.416 509.45 144.696 510.346 145.256C511.242 145.816 511.946 146.616 512.458 147.656C512.986 148.696 513.25 149.904 513.25 151.28C513.25 152.656 512.986 153.872 512.458 154.928C511.946 155.968 511.242 156.776 510.346 157.352C509.45 157.912 508.45 158.192 507.346 158.192C506.418 158.192 505.594 158 504.874 157.616C504.17 157.232 503.618 156.736 503.218 156.128V164.384H499.114V144.608H503.218V146.504ZM509.074 151.28C509.074 150.256 508.786 149.456 508.21 148.88C507.65 148.288 506.954 147.992 506.122 147.992C505.306 147.992 504.61 148.288 504.034 148.88C503.474 149.472 503.194 150.28 503.194 151.304C503.194 152.328 503.474 153.136 504.034 153.728C504.61 154.32 505.306 154.616 506.122 154.616C506.938 154.616 507.634 154.32 508.21 153.728C508.786 153.12 509.074 152.304 509.074 151.28ZM528.294 151.088C528.294 151.472 528.27 151.872 528.222 152.288H518.934C518.998 153.12 519.262 153.76 519.726 154.208C520.206 154.64 520.79 154.856 521.478 154.856C522.502 154.856 523.214 154.424 523.614 153.56H527.982C527.758 154.44 527.35 155.232 526.758 155.936C526.182 156.64 525.454 157.192 524.574 157.592C523.694 157.992 522.71 158.192 521.622 158.192C520.31 158.192 519.142 157.912 518.118 157.352C517.094 156.792 516.294 155.992 515.718 154.952C515.142 153.912 514.854 152.696 514.854 151.304C514.854 149.912 515.134 148.696 515.694 147.656C516.27 146.616 517.07 145.816 518.094 145.256C519.118 144.696 520.294 144.416 521.622 144.416C522.918 144.416 524.07 144.688 525.078 145.232C526.086 145.776 526.87 146.552 527.43 147.56C528.006 148.568 528.294 149.744 528.294 151.088ZM524.094 150.008C524.094 149.304 523.854 148.744 523.374 148.328C522.894 147.912 522.294 147.704 521.574 147.704C520.886 147.704 520.302 147.904 519.822 148.304C519.358 148.704 519.07 149.272 518.958 150.008H524.094ZM529.91 151.28C529.91 149.904 530.166 148.696 530.678 147.656C531.206 146.616 531.918 145.816 532.814 145.256C533.71 144.696 534.71 144.416 535.814 144.416C536.758 144.416 537.582 144.608 538.286 144.992C539.006 145.376 539.558 145.88 539.942 146.504V144.608H544.046V158H539.942V156.104C539.542 156.728 538.982 157.232 538.262 157.616C537.558 158 536.734 158.192 535.79 158.192C534.702 158.192 533.71 157.912 532.814 157.352C531.918 156.776 531.206 155.968 530.678 154.928C530.166 153.872 529.91 152.656 529.91 151.28ZM539.942 151.304C539.942 150.28 539.654 149.472 539.078 148.88C538.518 148.288 537.83 147.992 537.014 147.992C536.198 147.992 535.502 148.288 534.926 148.88C534.366 149.456 534.086 150.256 534.086 151.28C534.086 152.304 534.366 153.12 534.926 153.728C535.502 154.32 536.198 154.616 537.014 154.616C537.83 154.616 538.518 154.32 539.078 153.728C539.654 153.136 539.942 152.328 539.942 151.304ZM554.745 154.52V158H552.657C551.169 158 550.009 157.64 549.177 156.92C548.345 156.184 547.929 154.992 547.929 153.344V148.016H546.297V144.608H547.929V141.344H552.033V144.608H554.721V148.016H552.033V153.392C552.033 153.792 552.129 154.08 552.321 154.256C552.513 154.432 552.833 154.52 553.281 154.52H554.745Z" fill="#F34E27"/>
<circle cx="299" cy="55" r="54" fill="white" stroke="#F34E27" stroke-width="2"/>
<path fill-rule="evenodd" clip-rule="evenodd" d="M273.331 75.2576C275.358 79.1968 279.608 80.9376 285.507 80.2976C286.602 80.1741 287.689 79.9871 288.762 79.7376C291.854 79.0304 293.904 77.7008 294.853 75.7808C295.928 73.6064 295.317 71.2688 294.742 69.88C298.364 66.3798 301.303 63.6969 301.701 63.3331C301.73 63.3073 301.745 63.2931 301.747 63.2912L302.163 62.9136L301.773 62.5104C295.403 55.9568 290.557 52.4976 286.522 51.6224L285.141 51.3296C284.976 51.2942 284.812 51.2591 284.648 51.2243C283.384 50.9542 282.184 50.6981 281.08 50.3792L280.787 50.2944L280.562 50.5024C280.074 50.96 279.602 51.4288 279.122 51.9088C276.29 54.7296 273.352 57.6384 265.067 58.1056C262.456 58.2528 260.507 60.9472 260.107 64.9728C259.693 69.1536 261.186 73.8816 264.866 74.8304C269.68 76.0688 272.29 75.5952 273.331 75.2576ZM274.096 74.344L273.85 73.8144L273.331 74.0992C273.331 74.0994 273.329 74.1003 273.326 74.1018C273.197 74.1627 270.878 75.2597 265.133 73.7792C262.053 72.984 260.814 68.8 261.182 65.08C261.454 62.3024 262.734 59.4448 264.974 59.2016C265.024 59.1888 265.075 59.1888 265.125 59.1888C273.824 58.7152 276.912 55.6416 279.883 52.6784C280.28 52.2832 280.675 51.8896 281.08 51.5072C282.282 51.8368 283.566 52.1072 284.92 52.392L286.294 52.6832C290.03 53.4928 294.587 56.7328 300.605 62.8672C299.606 63.7856 296.906 66.28 293.725 69.36L293.45 69.6272L293.61 69.976C294.03 70.896 294.896 73.256 293.888 75.3008C293.091 76.912 291.286 78.048 288.528 78.68C281.136 80.3808 276.142 78.8784 274.096 74.344Z" fill="#F34E27"/>
<path fill-rule="evenodd" clip-rule="evenodd" d="M315.693 80.6C316.734 80.7002 317.783 80.6954 318.824 80.5856C321.526 80.2928 323.891 79.2608 325.451 77.6288C326.539 76.504 327.144 75.1872 327.211 73.8464C328.349 74.1408 330.597 74.1088 334.506 71.8448C337.72 69.9824 339.469 65.0496 338.488 60.6128C337.613 56.6592 334.899 54.192 331.042 53.8448C323.083 53.1344 319.819 50.2368 315.302 46.2256C314.792 45.7744 314.269 45.3136 313.722 44.8336C313.135 44.3242 312.346 43.7725 311.51 43.1879L311.482 43.168C308.901 41.3632 305.701 39.1232 305.381 36.2432C304.989 32.5568 302.886 30.0032 299.621 29.2336C295.728 28.3184 291.131 30.168 288.781 33.5536C284.275 33.0816 280.83 33.8016 278.531 35.6976C275.664 38.0624 275.037 41.7728 274.811 44.7408C274.493 49.0304 277.656 50.5264 280.792 51.4224C282.067 51.7893 283.442 52.0789 284.895 52.3851L284.928 52.392L286.302 52.6832L286.418 52.152L286.453 52.72C287.201 52.8993 287.931 53.1473 288.634 53.4608C291.989 54.9472 296.035 58.1472 301.005 63.2672C302.675 64.992 304.442 66.9104 306.4 69.1296C306.037 72.0784 306.72 74.8112 308.378 76.92C310.035 79.0288 312.565 80.3008 315.693 80.6ZM279.219 36.5408C280.507 35.48 282.226 34.832 284.357 34.6C285.895 34.4495 287.445 34.471 288.978 34.664L289.315 34.7024L289.498 34.4176C291.549 31.2208 295.794 29.4448 299.363 30.2864C302.195 30.9536 303.949 33.1088 304.301 36.3568C304.669 39.7248 308.101 42.1264 310.861 44.0544C310.938 44.109 311.014 44.1632 311.09 44.2171C311.826 44.7381 312.513 45.2252 313.006 45.6544C313.438 46.0305 313.855 46.4006 314.263 46.7622C314.368 46.8559 314.473 46.9491 314.578 47.0416L314.591 47.0534C319.082 51.0398 322.629 54.1879 330.941 54.9296C334.296 55.2304 336.659 57.3872 337.424 60.8496C338.31 64.8496 336.787 69.2672 333.958 70.9072C328.766 73.9152 326.995 72.5936 326.995 72.5936L325.894 71.6064L326.094 73.0704C326.27 74.3872 325.768 75.7392 324.67 76.8784C322.754 78.8784 319.437 79.864 315.792 79.5184C312.973 79.248 310.701 78.1184 309.232 76.2528C307.73 74.3424 307.115 71.7776 307.507 69.032L307.541 68.7856L307.381 68.5968C305.339 66.2928 303.509 64.3024 301.781 62.5168C296.712 57.2992 292.554 54.0144 289.067 52.4736C288.317 52.1389 287.538 51.8737 286.739 51.6816C286.67 51.66 286.6 51.6423 286.53 51.6288L285.149 51.336C284.984 51.3006 284.82 51.2655 284.656 51.2307C283.392 50.9606 282.192 50.7045 281.088 50.3856C277.186 49.2688 275.68 47.6592 275.891 44.8288C276.099 42.0768 276.659 38.6464 279.219 36.5408Z" fill="#F34E27"/>
<path d="M326.098 73.0688C326.008 72.3952 325.949 71.84 325.893 71.3088C325.797 70.4064 325.709 69.5808 325.486 68.3584C325.006 69.2438 324.382 70.0435 323.64 70.7248C321.678 72.5728 318.458 74.2016 315.31 73.2352C309.702 71.512 309.486 68.1152 309.312 65.384C309.25 64.3888 309.19 63.4496 308.885 62.6912C307.523 59.312 291.534 43.1712 288.245 43.5344H288.208C285.168 43.9856 277.918 44.0912 276.242 41.3888C275.602 40.3584 275.786 39.104 276.792 37.6624L277.683 38.2848C276.949 39.336 276.773 40.1888 277.163 40.816C278.406 42.816 284.803 42.9488 288.043 42.4608L288.106 42.4528C292.586 41.9728 308.757 59.4656 309.891 62.28C310.262 63.2016 310.328 64.2256 310.397 65.3104C310.557 67.9552 310.738 70.6896 315.627 72.1904C318.333 73.0208 321.157 71.5664 322.896 69.928C324.366 68.5424 326.032 66.2992 325.8 65.2256C325.8 65.2112 326.005 65.5344 326.005 65.5344C326.005 65.5344 326.014 65.5728 326.018 65.592C326.686 68.4944 326.818 69.7424 326.978 71.192C327.034 71.712 327.091 72.2592 327.179 72.9216L326.098 73.0688Z" fill="#F34E27"/>
<path d="M329.024 66.6304C327.349 66.8128 326.821 66.6304 325.984 67.1952L325.797 65.2352C327.042 66.1568 332.141 65.5264 334.965 63.2848C336.749 61.8656 337.222 60.1456 336.366 58.1648L337.363 57.7344C338.406 60.1472 337.794 62.4176 335.64 64.1344C333.89 65.5264 331.267 66.3872 329.024 66.6304Z" fill="#F34E27"/>
<ellipse cx="317.775" cy="57.6604" rx="1.2416" ry="1.592" transform="rotate(-51.19 317.775 57.6604)" fill="#F34E27"/>
<ellipse cx="307.181" cy="49.1401" rx="1.2416" ry="1.592" transform="rotate(-51.19 307.181 49.1401)" fill="#F34E27"/>
<ellipse cx="280.722" cy="60.3451" rx="1.592" ry="1.2416" transform="rotate(-44.34 280.722 60.3451)" fill="#F34E27"/>
<path d="M288.85 52.9648C288.776 53.3491 288.583 53.7003 288.298 53.968C287.67 54.5824 286.77 54.6864 286.291 54.1968C285.813 53.7072 285.933 52.8112 286.565 52.1968V52.1968C287.349 52.3812 288.113 52.6384 288.85 52.9648Z" fill="#F34E27"/>
<ellipse cx="296.586" cy="40.6189" rx="1.2416" ry="1.592" transform="rotate(-51.19 296.586 40.6189)" fill="#F34E27"/>
<path d="M282.24 70.9569C279.073 71.2993 275.693 70.5249 272.819 66.9953C268.238 67.3361 263.379 67.3697 261.494 65.2641C260.76 64.4433 260.513 63.3617 260.765 62.0545L261.83 62.2577C261.645 63.2305 261.8 63.9777 262.31 64.5409C263.925 66.3473 268.885 66.2113 273.03 65.8913L273.32 65.8673L273.501 66.0977C276.849 70.3809 281.201 71.0577 287.616 68.2785C288.88 67.7313 289.651 67.0721 289.905 66.3185C290.254 65.2865 289.613 64.1441 289.144 63.3089C288.901 62.8753 288.707 62.5329 288.656 62.2257C288.496 61.2657 289.393 60.5249 291.027 59.1857C291.926 58.4481 293.045 57.5297 294.334 56.3057L295.081 57.0913C293.765 58.3473 292.629 59.2801 291.721 60.0305C290.669 60.8945 289.675 61.7105 289.734 62.0529C289.83 62.3085 289.951 62.554 290.096 62.7857C290.632 63.7457 291.443 65.1857 290.941 66.6737C290.584 67.7313 289.611 68.6097 288.053 69.2833C286.333 70.0097 284.329 70.7281 282.24 70.9569Z" fill="#F34E27"/>
<path d="M273.077 74.7104C272.528 72.6784 272.354 70.1184 272.514 66.408L273.598 66.4544C273.438 70.0496 273.598 72.5088 274.125 74.4256L273.077 74.7104Z" fill="#F34E27"/>
<path d="M293.59 69.9265C293.224 68.8641 292.513 67.9697 291.438 66.6161C290.925 65.9681 290.329 65.2209 289.654 64.3041L290.528 63.6641C291.195 64.5665 291.781 65.3041 292.288 65.9441C293.432 67.3841 294.189 68.3441 294.614 69.5777L293.59 69.9265Z" fill="#F34E27"/>
<circle cx="498" cy="55" r="54" fill="white" stroke="#F34E27" stroke-width="2"/>
<path fill-rule="evenodd" clip-rule="evenodd" d="M531.152 54.6049C531.152 71.4705 517.437 85.1953 500.573 85.1953C483.709 85.1953 469.982 71.4705 469.982 54.6049H460.112L467.52 43.9777L474.92 33.3601L482.32 43.9777L489.731 54.6049H479.864C479.876 66.037 489.141 75.3014 500.573 75.3137C511.992 75.3137 521.269 66.0241 521.269 54.6049C521.269 43.1857 512 33.8977 500.573 33.8977V24.0161C517.44 24.0161 531.152 37.7409 531.152 54.6049Z" stroke="#F34E27" stroke-width="0.96"/>
</svg>
